<svg width="104" height="159" viewBox="0 0 104 159" fill="none" xmlns="http://www.w3.org/2000/svg">
<path d="M44.7324 0.166992L102.568 30.4111H102.938V30.6035L102.981 30.627L102.938 30.7109V54.5986H102.873L79.1699 66.7334L103.858 84.1699L103.5 84.6768V126.974H103.491L103.516 127.021L42.1045 158.462L41.6846 157.643L3 134.104L3.11719 133.911H3V86.8486H3.26172L86.25 44.3623V40.709L44.4473 18.8486L16.6875 33.0615V70.1611H0V23.0986H0.123047L0 22.8574L44.4473 0.101562L44.4824 0.0361328L44.5283 0.0605469L44.6475 0L44.7324 0.166992ZM19.6875 97.1865V124.725L43.3086 139.097L86.8125 116.825V92.5605L62.4004 75.3184L19.6875 97.1865Z" fill="white"/>
</svg>
