<svg width="768" height="216" viewBox="0 0 768 216" fill="none" xmlns="http://www.w3.org/2000/svg">
<path d="M204.96 175V155.02H237.9C243.78 155.02 248.34 153.22 251.58 149.62C254.94 146.02 256.62 141.76 256.62 136.84C256.62 133.48 255.9 130.42 254.46 127.66C253.02 124.9 250.86 122.74 247.98 121.18C245.22 119.5 241.86 118.66 237.9 118.66H204.96V98.86H235.2C240.24 98.86 244.26 97.6 247.26 95.08C250.38 92.56 251.94 88.78 251.94 83.74C251.94 78.58 250.38 74.74 247.26 72.22C244.26 69.7 240.24 68.44 235.2 68.44H204.96V48.46H238.08C246.48 48.46 253.5 50.02 259.14 53.14C264.9 56.14 269.22 60.16 272.1 65.2C274.98 70.12 276.42 75.52 276.42 81.4C276.42 88.6 274.2 94.84 269.76 100.12C265.44 105.28 259.08 109.12 250.68 111.64L251.76 103.72C261.12 106.36 268.32 110.74 273.36 116.86C278.52 122.86 281.1 130.12 281.1 138.64C281.1 145.36 279.42 151.48 276.06 157C272.82 162.4 268.02 166.78 261.66 170.14C255.42 173.38 247.8 175 238.8 175H204.96ZM186.96 175V48.46H211.26V175H186.96ZM335.075 176.8C327.395 176.8 320.555 175.18 314.555 171.94C308.675 168.7 304.055 164.2 300.695 158.44C297.335 152.68 295.655 146.02 295.655 138.46V88.06H319.415V137.92C319.415 141.52 320.015 144.64 321.215 147.28C322.415 149.8 324.215 151.72 326.615 153.04C329.015 154.36 331.835 155.02 335.075 155.02C339.995 155.02 343.835 153.52 346.595 150.52C349.355 147.52 350.735 143.32 350.735 137.92V88.06H374.315V138.46C374.315 146.14 372.635 152.86 369.275 158.62C366.035 164.38 361.415 168.88 355.415 172.12C349.535 175.24 342.755 176.8 335.075 176.8ZM393.092 175V88.06H416.852V175H393.092ZM404.972 74.02C401.132 74.02 397.952 72.76 395.432 70.24C392.912 67.6 391.652 64.36 391.652 60.52C391.652 56.8 392.912 53.62 395.432 50.98C397.952 48.34 401.132 47.02 404.972 47.02C408.932 47.02 412.112 48.34 414.512 50.98C417.032 53.62 418.292 56.8 418.292 60.52C418.292 64.36 417.032 67.6 414.512 70.24C412.112 72.76 408.932 74.02 404.972 74.02ZM437.741 175V44.86H461.321V175H437.741ZM518.933 176.8C510.893 176.8 503.693 174.82 497.333 170.86C490.973 166.9 485.933 161.5 482.213 154.66C478.613 147.82 476.813 140.14 476.813 131.62C476.813 122.98 478.613 115.24 482.213 108.4C485.933 101.56 490.913 96.16 497.153 92.2C503.513 88.24 510.773 86.26 518.933 86.26C525.173 86.26 530.753 87.52 535.673 90.04C540.713 92.56 544.733 96.1 547.733 100.66C550.853 105.1 552.533 110.14 552.773 115.78V146.74C552.533 152.38 550.913 157.48 547.913 162.04C544.913 166.6 540.893 170.2 535.853 172.84C530.813 175.48 525.173 176.8 518.933 176.8ZM522.893 155.02C527.333 155.02 531.173 154.06 534.413 152.14C537.773 150.1 540.353 147.34 542.153 143.86C544.073 140.26 545.033 136.12 545.033 131.44C545.033 126.88 544.073 122.86 542.153 119.38C540.353 115.78 537.773 113.02 534.413 111.1C531.173 109.06 527.393 108.04 523.073 108.04C518.633 108.04 514.733 109.06 511.373 111.1C508.133 113.14 505.553 115.9 503.633 119.38C501.833 122.86 500.933 126.88 500.933 131.44C500.933 136.12 501.833 140.26 503.633 143.86C505.553 147.34 508.193 150.1 511.553 152.14C514.913 154.06 518.693 155.02 522.893 155.02ZM567.173 175H543.773V151.6L547.553 130.36L543.593 109.48V44.86H567.173V175ZM629.614 176.8C620.494 176.8 612.394 174.88 605.314 171.04C598.234 167.08 592.594 161.68 588.394 154.84C584.314 148 582.274 140.2 582.274 131.44C582.274 122.8 584.254 115.12 588.214 108.4C592.294 101.56 597.814 96.16 604.774 92.2C611.734 88.12 619.474 86.08 627.994 86.08C636.394 86.08 643.774 88 650.134 91.84C656.614 95.56 661.654 100.72 665.254 107.32C668.974 113.8 670.834 121.18 670.834 129.46C670.834 131.02 670.714 132.64 670.474 134.32C670.354 135.88 670.054 137.68 669.574 139.72L596.494 139.9V122.26L658.594 122.08L649.054 129.46C648.814 124.3 647.854 119.98 646.174 116.5C644.614 113.02 642.274 110.38 639.154 108.58C636.154 106.66 632.434 105.7 627.994 105.7C623.314 105.7 619.234 106.78 615.754 108.94C612.274 110.98 609.574 113.92 607.654 117.76C605.854 121.48 604.954 125.92 604.954 131.08C604.954 136.36 605.914 140.98 607.834 144.94C609.874 148.78 612.754 151.78 616.474 153.94C620.194 155.98 624.514 157 629.434 157C633.874 157 637.894 156.28 641.494 154.84C645.094 153.28 648.214 151 650.854 148L664.714 161.86C660.514 166.78 655.354 170.5 649.234 173.02C643.234 175.54 636.694 176.8 629.614 176.8ZM712.27 175L673.93 88.06H699.85L727.39 159.7H714.61L742.33 88.06H767.35L729.19 175H712.27Z" fill="white"/>
<path d="M59.6426 2.22266L136.76 42.5488H137.25V42.8047L137.309 42.8359L137.25 42.9473V74.7988H137.162L105.56 90.9775L138.478 114.227L138 114.902V171.299H137.988L138.021 171.362L56.1396 213.282L55.5811 212.192L4 180.807L4.15723 180.549H4V117.799H4.34668L115 61.1484V56.2783L59.2637 27.1318L22.25 46.082V95.5488H0V32.7988H0.165039L0 32.4766L59.2646 2.13477L59.3105 2.04883L59.3711 2.08008L59.5293 2L59.6426 2.22266ZM26.25 131.582V168.3L57.7441 187.463L115.75 157.767V125.414L83.2002 102.425L26.25 131.582Z" fill="#0258E5"/>
</svg>
